# xmcd
#
# Track frame offsets: 
#        150
#        13095
#        23737
#        35760
#        49032
#        60230
#        71180
#        82587
#        93970
#
# Disc length: 1389 seconds
#
# Revision: 0
# Processed by: cddbd v1.4PL0 Copyright (c) Steve Scherf et al.
# Submitted via: ExactAudioCopy v0.90b3
#
DISCID=65056b09
DTITLE=George Jones - Flowers For Mama
DYEAR=1900
DGENRE=Country
TTITLE0=Flowers For Mama
TTITLE1=Let A Little Loving Come In
TTITLE2=I Can't Get Used To Being Lonely
TTITLE3=Things Have Gone To Pieces
TTITLE4=Wrong Side Of The World
TTITLE5=King Of The Road
TTITLE6=No Blues Is Good News
TTITLE7=Till I Hear It From You
TTITLE8=Developing My Pictures
EXTD=
EXTT0=
EXTT1=
EXTT2=
EXTT3=
EXTT4=
EXTT5=
EXTT6=
EXTT7=
EXTT8=
PLAYORDER=
